<svg width="206" height="62" viewBox="0 0 206 62" fill="none" xmlns="http://www.w3.org/2000/svg">
<path d="M198.524 0.233639C199.604 -0.0467281 200.541 -0.0747644 201.337 0.14953C202.189 0.317751 202.899 0.682228 203.467 1.24296C204.092 1.8037 204.547 2.50461 204.831 3.34571C205.172 4.18682 205.342 5.11203 205.342 6.12135C205.399 8.92502 205.399 11.1119 205.342 12.6819C205.342 14.252 205.342 15.6258 205.342 16.8033V42.6251C205.342 45.6531 205.342 48.1764 205.342 50.195C205.342 52.2137 205.228 53.8679 205.001 55.1575C204.831 56.3912 204.49 57.3164 203.979 57.9332C203.524 58.55 202.814 58.9705 201.848 59.1948C200.882 59.4752 199.604 59.6154 198.013 59.6154C196.479 59.6154 194.548 59.6154 192.218 59.6154C186.082 59.6154 181.225 58.1855 177.646 55.3258C174.123 52.466 172.249 47.9241 172.021 41.6999C171.908 39.0084 172.249 36.5412 173.044 34.2982C173.839 32.0553 175.004 30.1488 176.538 28.5788C178.129 26.9526 180.06 25.719 182.333 24.8779C184.662 23.9807 187.304 23.5602 190.258 23.6163H194.945V8.56054C194.945 7.66337 194.945 6.79423 194.945 5.95313C194.945 5.05595 195.03 4.24289 195.201 3.51394C195.371 2.72891 195.712 2.05603 196.224 1.49529C196.735 0.934561 197.502 0.514009 198.524 0.233639ZM183.696 46.9148C184.889 48.5409 187.048 49.4381 190.173 49.6063C190.798 49.6623 191.394 49.6904 191.963 49.6904C192.531 49.6343 193.042 49.5502 193.497 49.4381C194.008 49.382 194.491 49.2979 194.945 49.1857V33.6254C192.957 33.2889 191.139 33.0927 189.491 33.0366C187.9 32.9244 186.31 33.4852 184.719 34.7188C183.867 35.3917 183.213 36.2608 182.759 37.3262C182.304 38.3355 182.049 39.429 181.992 40.6065C181.935 41.728 182.049 42.8494 182.333 43.9709C182.617 45.0924 183.071 46.0737 183.696 46.9148Z" fill="black"/>
<path d="M140.904 26.3167C142.583 25.5027 144.338 24.9177 146.169 24.5616C148.001 24.2055 149.807 24.1292 151.587 24.3327C153.418 24.5362 155.174 25.0194 156.852 25.7825C158.582 26.5456 160.159 27.6139 161.583 28.9874C162.753 30.1575 163.771 31.5819 164.636 33.2607C165.501 34.8886 166.136 36.491 166.543 38.0681C167.408 40.866 167.535 43.6894 166.925 46.5382C166.314 49.387 165.272 52.0324 163.796 54.4742C163.084 55.5934 162.194 56.6108 161.126 57.5265C160.108 58.3913 159.014 59.1035 157.844 59.6631C156.318 60.3753 154.665 60.8586 152.884 61.113C151.104 61.4182 149.374 61.4945 147.695 61.3419C144.643 61.1893 141.947 60.4262 139.607 59.0527C137.318 57.6791 135.461 55.9241 134.036 53.7874C132.663 51.6508 131.747 49.2344 131.289 46.5382C130.882 43.7911 131.06 40.9932 131.823 38.1444C132.637 35.0921 133.807 32.6248 135.334 30.7425C136.911 28.8094 138.767 27.3341 140.904 26.3167ZM143.193 36.5419C142.43 37.2541 141.845 38.1444 141.438 39.2127C141.031 40.281 140.777 41.4002 140.675 42.5702C140.573 43.6894 140.65 44.834 140.904 46.0041C141.209 47.1232 141.667 48.1407 142.278 49.0564C142.786 49.8194 143.702 50.4553 145.025 50.9641C146.347 51.4728 147.721 51.778 149.145 51.8798C150.773 51.9815 152.198 51.5491 153.418 50.5825C154.639 49.5651 155.555 48.3187 156.166 46.8434C156.827 45.3682 157.132 43.7657 157.081 42.0361C157.03 40.3064 156.573 38.7294 155.708 37.305C155.097 36.2875 154.232 35.5499 153.113 35.0921C152.045 34.5833 150.9 34.329 149.679 34.329C148.509 34.2781 147.339 34.4562 146.169 34.8631C144.999 35.2192 144.007 35.7788 143.193 36.5419Z" fill="black"/>
<path d="M99.2501 22.5524C101.073 21.6654 102.98 21.0278 104.969 20.6397C106.958 20.2516 108.919 20.1684 110.853 20.3902C112.842 20.612 114.748 21.1387 116.572 21.9703C118.45 22.8019 120.163 23.9662 121.71 25.4632C122.981 26.7383 124.086 28.2907 125.025 30.1203C125.964 31.8945 126.655 33.6409 127.097 35.3596C128.036 38.409 128.175 41.486 127.512 44.5908C126.849 47.6956 125.716 50.5786 124.114 53.2398C123.34 54.4595 122.373 55.5684 121.213 56.5663C120.108 57.5089 118.92 58.2851 117.649 58.8949C115.991 59.6711 114.196 60.1978 112.262 60.475C110.328 60.8077 108.45 60.8909 106.626 60.7245C103.311 60.5582 100.383 59.7266 97.8412 58.2296C95.3549 56.7327 93.3382 54.8199 91.7911 52.4913C90.2993 50.1628 89.3048 47.5292 88.8075 44.5908C88.3655 41.5969 88.5589 38.5476 89.3877 35.4428C90.2717 32.1163 91.5425 29.4273 93.2001 27.3759C94.9129 25.2691 96.9296 23.6613 99.2501 22.5524ZM101.736 33.6964C100.908 34.4726 100.272 35.4428 99.8303 36.6071C99.3883 37.7714 99.112 38.9911 99.0015 40.2663C98.891 41.486 98.9739 42.7335 99.2501 44.0086C99.5817 45.2284 100.079 46.3372 100.742 47.3352C101.294 48.1668 102.289 48.8599 103.726 49.4143C105.162 49.9687 106.654 50.3014 108.201 50.4122C109.969 50.5231 111.516 50.0519 112.842 48.9985C114.168 47.8896 115.163 46.5313 115.826 44.9234C116.544 43.3156 116.876 41.5692 116.82 39.6841C116.765 37.7991 116.268 36.0804 115.328 34.528C114.665 33.4192 113.726 32.6152 112.511 32.1163C111.35 31.5618 110.107 31.2846 108.781 31.2846C107.51 31.2292 106.24 31.4232 104.969 31.8668C103.698 32.2549 102.621 32.8647 101.736 33.6964Z" fill="black"/>
<path d="M58.4809 26.3167C60.1597 25.5027 61.9148 24.9177 63.7462 24.5616C65.5776 24.2055 67.3835 24.1292 69.164 24.3327C70.9954 24.5362 72.7505 25.0194 74.4293 25.7825C76.1589 26.5456 77.7359 27.6139 79.1603 28.9874C80.3304 30.1575 81.3478 31.5819 82.2126 33.2607C83.0775 34.8886 83.7134 36.491 84.1203 38.0681C84.9852 40.866 85.1123 43.6894 84.5019 46.5382C83.8914 49.387 82.8485 52.0324 81.3733 54.4742C80.661 55.5934 79.7708 56.6108 78.7025 57.5265C77.685 58.3913 76.5913 59.1035 75.4213 59.6631C73.8951 60.3753 72.2418 60.8586 70.4613 61.113C68.6807 61.4182 66.9511 61.4945 65.2723 61.3419C62.22 61.1893 59.5238 60.4262 57.1837 59.0527C54.8945 57.6791 53.0377 55.9241 51.6133 53.7874C50.2397 51.6508 49.324 49.2344 48.8662 46.5382C48.4592 43.7911 48.6373 40.9932 49.4003 38.1444C50.2143 35.0921 51.3843 32.6248 52.9105 30.7425C54.4875 28.8094 56.3443 27.3341 58.4809 26.3167ZM60.7702 36.5419C60.0071 37.2541 59.4221 38.1444 59.0151 39.2127C58.6081 40.281 58.3538 41.4002 58.252 42.5702C58.1503 43.6894 58.2266 44.834 58.4809 46.0041C58.7862 47.1232 59.244 48.1407 59.8545 49.0564C60.3632 49.8194 61.2789 50.4553 62.6016 50.9641C63.9242 51.4728 65.2978 51.778 66.7222 51.8798C68.3501 51.9815 69.7745 51.5491 70.9954 50.5825C72.2163 49.5651 73.132 48.3187 73.7425 46.8434C74.4038 45.3682 74.7091 43.7657 74.6582 42.0361C74.6073 40.3064 74.1495 38.7294 73.2846 37.305C72.6742 36.2875 71.8094 35.5499 70.6902 35.0921C69.6219 34.5833 68.4773 34.329 67.2563 34.329C66.0863 34.2781 64.9162 34.4562 63.7462 34.8631C62.5761 35.2192 61.5841 35.7788 60.7702 36.5419Z" fill="black"/>
<path d="M43.9529 42.9576C44.0612 44.6961 44.1154 46.3531 44.1154 47.9287C44.1154 49.4499 44.0612 51.0798 43.9529 52.8183C43.9529 53.4703 43.9529 54.2037 43.9529 55.0187C43.9529 55.8336 43.8987 56.6214 43.7904 57.382C43.6821 58.1426 43.4925 58.8489 43.2217 59.5009C42.9509 60.1528 42.5447 60.669 42.003 61.0493C41.3531 61.4839 40.6219 61.7827 39.8095 61.9457C38.997 62.0544 38.2387 62 37.5346 61.7827C36.8305 61.5654 36.2076 61.1579 35.666 60.5603C35.1786 59.9627 34.9077 59.1206 34.8536 58.034C34.6911 55.5348 34.6099 53.0357 34.6099 50.5365C34.6099 49.2869 34.5828 48.0917 34.5286 46.9508C34.5286 45.8098 34.5557 44.2071 34.6099 42.1426C34.6099 41.1104 34.5286 39.9423 34.3661 38.6384C34.2036 37.2801 33.7974 36.3294 33.1475 35.7861C32.66 35.3514 32.1184 35.1069 31.5226 35.0526C30.9268 34.944 30.331 34.9983 29.7352 35.2156C29.1936 35.4329 28.7061 35.8404 28.2728 36.438C27.8395 36.9813 27.5416 37.6876 27.3792 38.5569C27.3792 39.2632 27.3521 39.9966 27.2979 40.7572C27.2979 41.4635 27.325 42.1426 27.3792 42.7946C27.4333 44.5331 27.4604 46.1902 27.4604 47.7657C27.4604 49.2869 27.4333 50.9168 27.3792 52.6554C27.325 53.3616 27.2979 54.1223 27.2979 54.9372C27.3521 55.7521 27.3521 56.5671 27.2979 57.382C27.2438 58.1426 27.0813 58.8489 26.8105 59.5009C26.5938 60.1528 26.1876 60.669 25.5918 61.0493C24.9418 61.4839 24.2377 61.7555 23.4795 61.8642C22.7753 61.9185 22.0983 61.8099 21.4484 61.5382C20.8526 61.2122 20.3109 60.7233 19.8235 60.0713C19.3902 59.4194 19.1465 58.5501 19.0923 57.4635C18.984 56.2139 18.9027 55.073 18.8486 54.0408C18.8486 52.9542 18.8486 51.8133 18.8486 50.618C18.8486 49.3684 18.8756 48.0917 18.9298 46.7878C18.984 45.4295 18.9569 44.1256 18.8486 42.8761C18.8486 42.4958 18.8215 42.0611 18.7673 41.5722C18.7673 41.0289 18.7402 40.4856 18.6861 39.9423C18.6861 39.399 18.6319 38.8828 18.5236 38.3939C18.4694 37.8506 18.3611 37.416 18.1986 37.09C17.7653 36.3294 16.98 35.8404 15.8425 35.6231C14.7593 35.4058 13.8385 35.4873 13.0803 35.8676C12.322 36.2479 11.7533 36.7368 11.3741 37.3345C10.995 37.9321 10.7242 38.584 10.5617 39.2903C10.3992 39.9966 10.318 40.7572 10.318 41.5722C10.318 42.3328 10.318 43.0662 10.318 43.7725C10.318 47.3039 10.318 50.3735 10.318 52.9813C10.3721 55.5348 10.1013 57.5993 9.50552 59.1749C9.23471 59.9898 8.66601 60.6146 7.7994 61.0493C6.98697 61.4839 6.09328 61.7012 5.11836 61.7012C4.1976 61.7012 3.331 61.4839 2.51856 61.0493C1.70612 60.6146 1.16449 59.9355 0.893682 59.0119C0.731194 58.4143 0.568707 57.5722 0.406219 56.4856C0.297894 55.3447 0.21665 54.0951 0.162488 52.7369C0.108325 51.3786 0.081244 50.0204 0.081244 48.6621C0.081244 47.2496 0.081244 45.9728 0.081244 44.8319V33.0968C0.0270813 31.8472 0 30.4889 0 29.0221C0 27.5552 0.21665 26.2241 0.64995 25.0288C1.02909 23.9966 1.62488 23.3446 2.43731 23.073C3.24975 22.747 4.08927 22.6112 4.95587 22.6655C5.9308 22.6655 6.68907 22.9372 7.2307 23.4805C7.82649 23.9694 8.25979 24.5942 8.5306 25.3548C8.80141 26.0611 8.9639 26.876 9.01806 27.7996C9.07222 28.6689 9.12639 29.511 9.18055 30.326C9.77634 28.9677 10.4804 27.854 11.2929 26.9847C12.1595 26.0611 13.3781 25.4635 14.9489 25.1918C18.9569 24.4312 22.1525 25.4635 24.5356 28.2886C25.6189 27.202 27 26.3056 28.6791 25.5993C29.979 25.1103 31.3059 24.893 32.66 24.9473C34.0141 24.9473 35.2869 25.1918 36.4785 25.6808C37.7242 26.1698 38.8345 26.876 39.8095 27.7996C40.8385 28.7232 41.651 29.837 42.2468 31.1409C43.0592 32.8794 43.5196 34.8081 43.6279 36.927C43.7362 39.0458 43.8446 41.056 43.9529 42.9576Z" fill="black"/>
</svg>
