<svg width="69" height="69" viewBox="0 0 69 69" fill="none" xmlns="http://www.w3.org/2000/svg">
<path d="M65.288 47.3789C64.7069 43.3899 64.5937 40.7623 64.5553 38.8682C64.5154 36.9065 64.8968 34.9783 64.8499 32.6701C64.7852 29.4795 64.9038 27.9996 64.7016 25.3644C63.7464 20.9988 62.7257 20.1598 61.5669 18.0178C60.7165 16.4109 59.5735 15.0468 58.1381 13.9255C56.777 12.8027 55.2356 11.9542 53.5139 11.3801C51.8666 10.8045 50.1139 10.5355 48.2559 10.5732C46.3965 10.5433 44.5812 10.8508 42.8099 11.4959C40.5239 12.422 36.6035 14.6012 35.1446 15.9842C32.8915 11.7842 28.088 10.6483 24.9601 11.2045C22.8117 11.5864 20.7874 12.0444 18.8119 13.2729C17.656 13.9916 15.525 15.4764 14.2638 17.1979M65.288 47.3789C65.388 48.1497 65.5168 48.3745 65.2139 50.5986C65.0845 51.5486 64.7243 52.3914 64.4104 53.1154C63.7131 54.7241 62.4215 55.3737 61.9617 55.6656C61.5019 55.9575 60.1118 56.2152 59.0012 56.4407C57.8891 56.5987 56.8473 56.5521 55.8757 56.3012C54.904 56.0502 54.039 55.5602 53.2807 54.8312C52.5968 54.1007 51.7165 52.66 51.6803 50.8733C51.6331 48.5492 51.6683 50.2828 51.6051 47.1711M65.288 47.3789C64.947 44.7508 64.2234 43.8998 62.6976 42.648C61.0067 41.2606 58.6822 40.7291 55.6788 41.7903C53.7052 42.4876 51.9896 44.1344 51.6051 47.1711M51.6051 47.1711C51.5735 45.6152 51.7823 41.4488 51.8467 39.1262C51.9626 34.9438 52.5329 34.6352 52.8202 32.1433C52.9674 30.8663 52.915 29.1263 52.3709 26.6513C51.5604 25.0221 51.1976 24.8941 50.292 24.2358C49.6122 23.7082 48.8628 23.4189 48.0439 23.3678C47.2237 23.2491 46.7945 23.2493 45.7976 23.4134C45.0599 23.6991 44.7978 23.4337 43.3256 24.82C42.7448 25.5085 42.0942 26.7708 41.8932 27.8576C41.6505 29.1698 41.8868 27.8498 41.3914 30.6086C41.1345 32.0394 41.1851 31.8486 40.999 33.3835C40.7336 35.5713 40.7334 35.5621 40.7732 37.5238C40.8117 39.4179 40.8157 41.448 40.7853 43.6142C40.7289 44.4951 40.7109 45.4429 40.7315 46.4576C40.8264 47.4707 40.847 48.4854 40.7933 49.5016C40.7382 50.4502 40.5331 51.3341 40.178 52.1534C39.8972 52.9712 39.3528 53.6251 38.5449 54.1152C37.6641 54.6745 36.7048 55.0323 35.6671 55.1887C34.7023 55.276 33.7706 55.1596 32.8719 54.8394C32.0461 54.4502 31.2906 53.8564 30.6052 53.0583C29.9942 52.2586 29.6378 51.183 29.536 49.8316C29.3558 48.2788 29.2155 46.8605 29.1151 45.5768C29.0876 44.2238 29.0588 42.8033 29.0286 41.3151C28.997 39.7592 29.0019 38.1688 29.0432 36.5438C29.0832 34.8512 28.7991 35.3326 29.0076 33.6269C28.998 33.1534 29.1513 32.5363 29.0646 31.929C29.0509 31.2525 29.1094 30.6472 29.0214 29.9723C29.0076 29.2958 29.3595 28.3151 29.1985 27.7093C29.1104 27.0343 28.9508 26.4962 28.7196 26.0948C28.1058 25.1599 27.0158 24.5729 25.4496 24.334C23.9578 24.0936 21.8583 24.3393 20.8275 24.8339C19.7966 25.3285 18.428 26.3859 17.9229 27.1405C17.4178 27.8952 17.5015 28.1836 17.2964 29.0675C17.0913 29.9514 16.999 30.9007 17.0196 31.9154C17.0389 32.8624 17.0574 33.7757 17.0753 34.655C17.1645 39.052 18.5904 42.108 18.7533 45.8376M18.7533 45.8376C18.8922 49.0154 19.2091 50.8293 17.7703 53.8592C17.1629 55.1382 16.0715 55.8258 15.3175 56.2109C14.2137 56.7747 13.7222 56.8523 12.3845 56.8795C11.0467 56.9066 10.9351 56.8412 9.80935 56.3227C8.68358 55.8042 7.93929 55.1097 7.41741 54.0365C7.17934 53.2969 6.6618 52.4375 6.41138 51.0891C6.2339 49.6716 5.94638 47.6712 5.89883 45.3286M18.7533 45.8376C18.4688 44.5055 17.3737 41.3982 14.6466 40.6228C11.2378 39.6535 9.13762 40.2345 7.65823 41.2648C6.17883 42.295 5.87662 44.6095 5.89883 45.3286M5.89883 45.3286C5.84762 42.8059 5.83572 42.2198 5.78778 39.8582C5.72409 36.7209 5.19519 35.3023 5.16635 33.8817L4.34693 28.6198C4.24102 27.0655 3.76145 21.7537 3.72438 19.9272M3.72438 19.9272C3.6873 18.1008 3.81157 15.0662 4.37592 13.5659C4.87006 12.2701 5.67109 11.4417 6.77901 11.0809C7.88556 10.6524 8.03428 10.4802 9.22476 10.5237C10.5625 10.4965 11.6098 10.8136 12.3668 11.475C13.1966 12.0672 13.0819 11.984 13.4727 12.9235C13.8622 13.7953 13.9039 14.1186 14.0016 15.267C14.0979 16.3479 14.1689 16.1847 14.2638 17.1979M3.72438 19.9272C3.67811 22.4436 4.76008 23.9303 6.81594 24.4077C8.82582 24.8745 10.819 24.4651 12.7918 23.1568C14.549 21.9916 14.4839 19.3094 14.2638 17.1979" stroke="#CFCFCF" stroke-width="2" stroke-linejoin="round"/>
</svg>
