<svg width="80" height="80" viewBox="0 0 80 80" fill="none" xmlns="http://www.w3.org/2000/svg">
<rect width="80" height="80" fill="white"/>
<path d="M74.7385 40.6771C74.9128 43.4751 75 46.142 75 48.6777C75 51.126 74.9128 53.7492 74.7385 56.5472C74.7385 57.5965 74.7385 58.7769 74.7385 60.0885C74.7385 61.4 74.6513 62.6679 74.477 63.892C74.3026 65.1162 73.9975 66.2529 73.5617 67.3022C73.1258 68.3514 72.4721 69.1821 71.6004 69.7942C70.5543 70.4937 69.3775 70.9746 68.07 71.2369C66.7624 71.4118 65.542 71.3243 64.4088 70.9746C63.2756 70.6248 62.2732 69.969 61.4015 69.0072C60.6169 68.0454 60.1811 66.6901 60.0939 64.9413C59.8324 60.9191 59.7017 56.897 59.7017 52.8748C59.7017 50.8637 59.6581 48.94 59.5709 47.1038C59.5709 45.2676 59.6145 42.6882 59.7017 39.3655C59.7017 37.7042 59.5709 35.8242 59.3094 33.7257C59.0479 31.5397 58.3941 30.0096 57.3481 29.1352C56.5635 28.4357 55.6918 28.0422 54.733 27.9547C53.7741 27.7799 52.8152 27.8673 51.8563 28.2171C50.9846 28.5668 50.2001 29.2226 49.5028 30.1844C48.8054 31.0588 48.326 32.1955 48.0645 33.5945C48.0645 34.7312 48.0209 35.9117 47.9337 37.1358C47.9337 38.2725 47.9773 39.3655 48.0645 40.4148C48.1516 43.2128 48.1952 45.8797 48.1952 48.4154C48.1952 50.8637 48.1516 53.4868 48.0645 56.2849C47.9773 57.4216 47.9337 58.6457 47.9337 59.9573C48.0209 61.2689 48.0209 62.5805 47.9337 63.892C47.8465 65.1162 47.585 66.2529 47.1492 67.3022C46.8005 68.3514 46.1467 69.1821 45.1878 69.7942C44.1418 70.4937 43.0086 70.9309 41.7882 71.1057C40.655 71.1932 39.5654 71.0183 38.5193 70.5811C37.5605 70.0565 36.6888 69.2695 35.9042 68.2203C35.2069 67.171 34.8146 65.772 34.7274 64.0232C34.5531 62.0121 34.4223 60.1759 34.3352 58.5146C34.3352 56.7658 34.3352 54.9296 34.3352 53.0059C34.3352 50.9948 34.3788 48.94 34.4659 46.8415C34.5531 44.6555 34.5095 42.557 34.3352 40.5459C34.3352 39.9338 34.2916 39.2343 34.2044 38.4474C34.2044 37.573 34.1608 36.6986 34.0737 35.8242C34.0737 34.9499 33.9865 34.1192 33.8122 33.3322C33.725 32.4578 33.5506 31.7583 33.2891 31.2337C32.5918 30.0096 31.3278 29.2226 29.4972 28.8729C27.7538 28.5231 26.2719 28.6543 25.0516 29.2663C23.8312 29.8784 22.9159 30.6653 22.3057 31.6272C21.6955 32.589 21.2597 33.6383 20.9982 34.775C20.7366 35.9117 20.6059 37.1358 20.6059 38.4474C20.6059 39.6715 20.6059 40.852 20.6059 41.9887C20.6059 47.6722 20.6059 52.6125 20.6059 56.8095C20.6931 60.9191 20.2572 64.2418 19.2983 66.7775C18.8625 68.0891 17.9472 69.0946 16.5525 69.7942C15.2449 70.4937 13.8066 70.8434 12.2376 70.8434C10.7557 70.8434 9.36096 70.4937 8.05341 69.7942C6.74586 69.0946 5.87416 68.0017 5.43831 66.5152C5.1768 65.5534 4.91529 64.1981 4.65378 62.4493C4.47944 60.6131 4.34868 58.602 4.26151 56.416C4.17434 54.2301 4.13076 52.0441 4.13076 49.8581C4.13076 47.5847 4.13076 45.5299 4.13076 43.6937V24.807C4.04359 22.7959 4 20.6099 4 18.2491C4 15.8882 4.34868 13.746 5.04604 11.8223C5.65623 10.161 6.6151 9.11172 7.92265 8.67453C9.2302 8.1499 10.5813 7.9313 11.9761 8.01874C13.5451 8.01874 14.7655 8.45593 15.6372 9.33032C16.5961 10.1173 17.2934 11.1228 17.7293 12.3469C18.1651 13.4837 18.4266 14.7952 18.5138 16.2817C18.601 17.6807 18.6882 19.036 18.7753 20.3476C19.7342 18.1616 20.8674 16.3691 22.175 14.9701C23.5697 13.4837 25.531 12.5218 28.0589 12.0846C34.5095 10.8605 39.6525 12.5218 43.488 17.0686C45.2314 15.3199 47.4543 13.8771 50.1565 12.7404C52.2486 11.9535 54.3843 11.6037 56.5635 11.6912C58.7428 11.6912 60.7913 12.0846 62.709 12.8716C64.7139 13.6585 66.5009 14.7952 68.07 16.2817C69.7262 17.7681 71.0338 19.5606 71.9926 21.6592C73.3002 24.4572 74.0411 27.5613 74.2155 30.9714C74.3898 34.3815 74.5641 37.6167 74.7385 40.6771Z" fill="black"/>
</svg>
